<svg width="11" height="8" viewBox="0 0 11 8" fill="none" xmlns="http://www.w3.org/2000/svg">
<path d="M5.31667 8C7.71667 8 9.58333 5.93333 10.3833 4.73333C10.7167 4.26667 10.7167 3.66667 10.3833 3.2C9.58333 2.06667 7.71667 0 5.31667 0C2.91667 0 1.05 2.06667 0.25 3.26667C-0.0833333 3.73333 -0.0833333 4.33333 0.25 4.73333C1.05 5.93333 2.91667 8 5.31667 8ZM5.31667 2C6.45 2 7.31667 2.86667 7.31667 4C7.31667 5.13333 6.45 6 5.31667 6C4.18333 6 3.31667 5.13333 3.31667 4C3.31667 2.86667 4.18333 2 5.31667 2Z" fill="#5E6272"/>
</svg>
